# xmcd CD Database Entry
#
# Track frame offsets:
# 150
# 15777
# 25083
# 41893
# 52659
# 68265
# 81275
# 97550
# 109666
# 120051
#
# Disc length: 1937 seconds
#
# Revision: 3
# Processed by: cddbd v1.4PL0 Copyright (c) Steve Scherf et al.
# Submitted via: tcd 2.0b
#
DISCID=58078f0a
DTITLE=Amazing Rhythm Aces - Too Stuffed To Jump
DYEAR=1900
DGENRE=
TTITLE0=Typical American Boy
TTITLE1=If I Just Knew What To Say
TTITLE2=The End Is Not In Sight
TTITLE3=Same Ol' Me
TTITLE4=These Dreams Of You
TTITLE5=I'll Be Gone
TTITLE6=Out Of The Snow
TTITLE7=Fool For The Woman
TTITLE8=A Little Italy Rag
TTITLE9=Dancing The Night Away
EXTD=
EXTT0=
EXTT1=
EXTT2=
EXTT3=
EXTT4=
EXTT5=
EXTT6=
EXTT7=
EXTT8=
EXTT9=
PLAYORDER=
